<?xml version="1.0" encoding="utf-8"?>
<svg version="1.1" id="Layer_1" xmlns="http://www.w3.org/2000/svg" xmlns:xlink="http://www.w3.org/1999/xlink" x="0px" y="0px"
     viewBox="0 0 141.4 115.4" style="enable-background:new 0 0 141.4 115.4;" xml:space="preserve">
<style type="text/css">
    .st0{fill:#ED1A64;}
    .st1{fill:#2B2923;}
</style>
<g>
    <g>
        <path class="st0" d="M89.7,74.1c-0.8,1-9.7,4.5-13.1,2.3c-3.7-2.4-4-6.3-4.1-10.2c0-1,0.2-2.1,0.3-3.1
            c-4.8-1.1-7.8,15.5-11.5,15.7c-2.2,0.6-2.4-4.9-2.6-5.4c-2,1.1-5.3,3-7.3,3.7c-8.2,3.1-13.5-0.4-13.6-9.1c0-3.6,0.6-7.2,1.2-10.8
            c0.4-2.4,0.9-5,4.4-4.1c2,0.5,2.9,3.3,2.3,6.3c-0.6,3-1.2,6-1.3,9c-0.1,4.4,1.5,5.2,5.1,2.7c5.5-3.8,8.9-9,10.1-15.5
            c0.7-4,1.7-5.2,4.3-4.7c2.5,0.5,3.7,3.4,2.7,6.7c-0.2,0.7-0.4,1.4-0.8,3c1.2-0.9,9.1-8.6,12.2-4.1c0.9,1.3,1.2,10,1.1,12.1
            c-0.1,3.9,1.2,5,5.1,4.9c1.7,0,3.3-0.2,5-0.3C89.3,73.5,89.5,73.8,89.7,74.1z"/>
        <path class="st0" d="M48.9,44.1c0,3.1-1.6,4.8-4.5,4.8c-3,0-4.5-1.5-4.6-4.6c-0.1-2.5,2-4.5,4.6-4.5
            C47.3,39.8,48.9,41.3,48.9,44.1z"/>
    </g>
    <path class="st0" d="M140.8,44.4c-0.8-3.1-3.1-3.5-5.4-2c0.6,2.4,3.4,11.5-8.1,21.7c-5.5,3.9-11.9,6.2-18.8,6.4
        c-2.9,0.1-8.5-2.1-8.5-2.5c2.7-1.1,15.4-7.5,14-15.2c-2.1-9.7-11.9-6.8-21.8-0.2c0-1-0.7-16.6-1.1-21.2c-0.2-2.3-2.1-3.6-4.4-3.4
        c-4.1,0.4-1.9,27.2-1.9,37.9c0,2.8-0.6,5.6-0.6,8.4c0.1,2.3,0.9,4.3,3.8,4.2c2.5,0,4.1-6.3,4.3-7.4c2.5,1.3,9.9,6.8,23.3,4.1
        c12.1-2.8,22.1-8.2,25.3-21.3C141.6,50.9,141.6,47.4,140.8,44.4z M94.4,62.6c-0.3-5.6,5.7-10.8,10.9-9.7c1.7,0.4,2.6,3,0.9,4.6
        C104.3,59.4,101.6,62.1,94.4,62.6z"/>
    <path class="st0" d="M47.1,7.3c-0.3-2.5-1.2-6-5.3-7.1c-3-0.8-6.6,1-8.5,4.3c-5.4,9-8.1,16.5-8.8,24.3c-0.1,0.9-0.3,1.7-0.6,2.6
        c0,0.1-0.1,0.2-0.1,0.3c0,0,0,0,0,0c0-2.2-0.1-4.4-0.1-6.5c0-4.5-0.1-9.3-0.3-13.9c-0.1-2.9-0.7-5.7-1.7-8.3
        c-0.6-1.6-1.9-2.5-3.4-2.5c-1.3,0-2.5,0.7-3.2,2c-7,11.6-12.2,21.7-15,33c-0.3,1.2-0.2,2.2,0.4,3c0.5,0.7,1.2,1.1,2.1,1.2l0.2,0
        c1.3,0,2.9-1.4,3.3-2.5c0.7-1.9,1.4-3.9,2-5.8c0.7-2.3,1.5-4.6,2.4-6.9c1.4-3.4,3.2-6.8,4.8-10.1c0.7-1.3,1.3-2.6,1.9-3.9l0.2,0.1
        c0,1.3,0.1,2.6,0.1,3.9c0.1,3.2,0.2,6.4,0.4,9.6l0.3,4.5c0.7,12.2,1.4,24.8,2.3,37.2c0.3,3.5,1,7.2,2.2,11.3
        c0.3,1.1,6.2,2.5,6.4,1.6c0.1-0.6-0.3-3.5-0.3-4.1c0-0.3-0.1-0.5-0.1-0.8L28.6,69c-0.4-6.5-0.7-13.2-1-19.9c0-0.8,0.3-1.8,0.6-1.9
        c5.9-3.4,9.8-8.6,12.8-13.2C46.3,25.8,48.3,17.1,47.1,7.3z M38.4,8.3c0.3-0.4,0.5-0.7,0.8-0.9c0.3-0.2,1.2-0.8,1.7-0.8l0.1,0
        c0.2,0.1,0.7,0.9,0.8,1.6c0.6,6.1-0.4,11.6-3,16.5c-1.9,3.6-4.4,7-6.7,10.4c-0.8,1.2-1.7,2.3-2.5,3.5c-0.3,0.4-0.8,0.7-1.3,1.1
        c-0.1,0.1-0.3,0.2-0.4,0.3l-0.1,0c0.3-1.6,0.6-3.3,0.9-5c1.5-9.1,3.1-18.4,9.4-26C38.1,8.6,38.3,8.4,38.4,8.3z"/>
</g>
<g>
    <path class="st1" d="M15.9,115.1h-0.5l-11.1-12v12H2.9v-15h0.5L14.4,112v-11.9h1.4V115.1z"/>
    <path class="st1" d="M25.5,100.1h0.3l7.3,15h-1.6l-1.4-2.9h-8.9l-1.4,2.9h-1.6L25.5,100.1z M25.8,103h-0.2l-3.5,7.6l-0.2,0.3h7.5
        l-0.2-0.3L25.8,103z"/>
    <path class="st1" d="M37,115.1h-1.4v-15H37V115.1z"/>
    <path class="st1" d="M41.4,115.1v-15h1.4v13.7h9v1.3H41.4z"/>
    <path class="st1" d="M58.8,112.6c0,0,1.6,1.5,4.6,1.5c3,0,4.3-1.1,4.3-2.8c0-1.7-1.3-2.4-4.4-3.3c-3.4-1-5.2-2-5.2-4.3
        c0-2.5,2.2-4,5.5-4c3.6,0,5.2,1.4,5.2,1.4l-0.8,1.2c0,0-1.5-1.2-4.4-1.2c-2.3,0-4,0.9-4,2.6c0,1.5,1.3,2.1,4.4,3
        c3.6,1,5.2,2.2,5.2,4.6c0,2.4-1.7,4.2-5.7,4.2c-3.7,0-5.4-1.7-5.4-1.7L58.8,112.6z"/>
    <path class="st1" d="M70.5,100.1h12.1v1.3h-5.4v13.7h-1.4v-13.7h-5.4V100.1z"/>
    <path class="st1" d="M85.1,108.8v-8.8h1.4v8.8c0,3.1,1.6,5.3,4.8,5.3c3.2,0,4.8-2.2,4.8-5.3v-8.8h1.4v8.8c0,4-2.2,6.6-6.2,6.6
        C87.4,115.4,85.1,112.8,85.1,108.8z"/>
    <path class="st1" d="M106.8,115.1h-5v-15h5c4.7,0,8,2.9,8,7.5C114.8,112.2,111.5,115.1,106.8,115.1z M103.2,101.4v12.4h3.6
        c3.8,0,6.6-2.3,6.6-6.2c0-3.9-2.9-6.2-6.6-6.2H103.2z"/>
    <path class="st1" d="M119.6,115.1h-1.4v-15h1.4V115.1z"/>
    <path class="st1" d="M123,107.6c0-4.5,3-7.9,7.7-7.9c4.7,0,7.7,3.4,7.7,7.9c0,4.4-3,7.8-7.7,7.8C126,115.4,123,112,123,107.6z
         M137,107.6c0-3.6-2.4-6.5-6.3-6.5c-3.9,0-6.3,3-6.3,6.5c0,3.5,2.4,6.5,6.3,6.5C134.6,114.1,137,111.1,137,107.6z"/>
</g>
</svg>
