<svg version="1.1" id="Layer_1" xmlns="http://www.w3.org/2000/svg" xmlns:xlink="http://www.w3.org/1999/xlink" x="0px" y="0px"
	 viewBox="0 0 500 500" style="enable-background:new 0 0 500 500;" xml:space="preserve">
<style type="text/css">
	.st0{fill:#ED1A64;}
</style>
<path class="st0" d="M433.4,60.7c-1.7-15.3-8.8-34.1-39.7-44.6C279.6-22.5,244.5,190.6,242,196c-0.3,0.7-0.6,1.3-0.9,2c0,0,0,0,0,0
	c0.4-13.1-2.4-146.6-7.2-173.4c-1.8-9.9-14-15.9-25.8-16.5C198,7.5,188.2,11.5,182,18.5C123.2,85.4,91.5,129.3,68.6,196.8
	c-8.5,25.2,0.8,46.4,14.6,44.6c16-2.1,33.7-75.1,97.2-150.9c6.1-7.2,11.1-14.9,16.6-22.4l1.8,0.4c0,7.8-0.1,15.6-0.2,23.4
	c-0.2,19-0.4,38.6,0.1,58l0.7,27c1.8,73.5,3.6,149.4,6.9,224.2c0.9,20.9,4.2,43.7,14,68.9c12.2,31.4,49.2,31.5,48.7-12.8
	c0-1.6-0.5-3.1-0.5-4.7l-0.6-28.5c-0.8-39.2-1.7-79.7-1.9-119.6c0-4.6,3.2-10.4,5.5-11.3c47.5-17.8,79.8-47.4,105.1-74.1
	C421.2,171.9,439.8,120.2,433.4,60.7z M381.8,59.1c12.7,35.4,1.8,74.2-20.3,102.6c-36.3,46.5-83.4,83.4-87.6,85.2
	c-1.1,0.5-2.2,1-3.3,1.5l-0.4-0.2C300,146.9,365.7,14,381.8,59.1z"/>
</svg>
