<svg version="1.0" xmlns="http://www.w3.org/2000/svg" width="700.000000pt" height="700.000000pt" viewBox="0 0 700.000000 700.000000" preserveAspectRatio="xMidYMid meet">
  <g transform="translate(0.000000,700.000000) scale(0.100000,-0.100000)" fill="#000000" stroke="none">

  <path d="M2777 6874 c-116 -30 -189 -83 -303 -218 -27 -32 -60 -71 -74 -86
  -14 -16 -32 -36 -41 -46 -8 -11 -34 -41 -58 -69 -24 -27 -50 -59 -60 -70 -9
  -11 -36 -45 -61 -75 -25 -30 -52 -64 -61 -75 -10 -11 -41 -49 -71 -85 -77 -92
  -299 -388 -388 -517 -285 -411 -485 -797 -654 -1263 -47 -129 -62 -178 -82
  -270 -10 -46 -6 -199 6 -252 42 -176 171 -273 278 -208 69 42 112 114 400 672
  45 86 93 178 108 205 106 192 144 260 195 344 171 284 349 540 543 783 66 83
  163 208 215 279 101 138 119 147 114 60 -4 -82 -3 -1070 2 -1218 3 -127 6
  -230 20 -775 2 -91 7 -262 10 -380 3 -118 8 -294 10 -390 8 -294 16 -565 30
  -965 3 -82 8 -213 10 -290 19 -526 34 -792 50 -873 2 -13 9 -57 14 -97 6 -41
  16 -95 22 -122 6 -26 12 -55 14 -63 29 -137 102 -357 147 -448 44 -88 132
  -181 204 -217 50 -25 71 -30 134 -30 89 0 129 17 190 78 73 74 120 208 122
  350 1 40 -2 198 -6 352 -13 531 -15 632 -22 1090 -12 793 -12 784 15 844 26
  55 27 56 196 127 246 103 543 283 785 474 207 164 511 457 675 651 92 108 255
  331 278 379 4 8 20 35 36 60 155 243 306 663 337 935 3 33 8 62 9 65 6 11 18
  231 18 330 0 375 -51 550 -204 707 -79 82 -242 181 -344 209 -5 1 -48 14 -95
  28 -115 33 -173 41 -320 40 -133 -1 -210 -15 -335 -62 -38 -14 -77 -32 -86
  -39 -8 -7 -20 -13 -26 -13 -26 0 -196 -124 -281 -204 -316 -301 -597 -821
  -797 -1471 -20 -66 -41 -131 -46 -145 -5 -14 -32 -115 -59 -225 -62 -243 -56
  -220 -70 -280 -12 -53 -19 -81 -25 -105 -2 -8 -4 -21 -4 -27 -1 -7 -4 -13 -9
  -13 -4 0 -8 75 -9 168 -1 148 -8 498 -18 847 -3 113 -10 301 -20 515 -3 52 -7
  156 -10 230 -3 74 -7 160 -10 190 -2 30 -7 98 -10 150 -4 52 -8 111 -10 130
  -2 19 -7 60 -10 90 -3 30 -8 68 -11 84 -17 100 -128 190 -275 222 -52 11 -177
  10 -222 -2z m2521 -621 c44 -50 78 -156 107 -333 13 -80 14 -318 1 -395 -52
  -318 -168 -565 -396 -849 -113 -140 -131 -161 -230 -270 -332 -365 -904 -876
  -982 -876 -16 0 -16 3 -2 43 8 23 48 145 89 272 75 228 180 522 216 602 11 23
  19 47 19 53 0 5 4 18 10 28 10 19 120 280 120 286 0 2 16 39 36 83 20 43 42
  92 49 108 104 234 246 516 360 715 52 91 188 301 208 322 7 7 25 31 42 53 53
  71 147 157 199 181 68 32 110 26 154 -23z"/>
  </g>
</svg>
